<svg width="1920" height = "1080" xmlns="http://www.w3.org/2000/svg">
<defs>
<mask id="sceneMask">
<rect width="1920" height="1080" fill="white" />
</mask>
</defs>
<path d="M 0 1079 L 0 1079" fill="rgb(255,255,255)" fill-opacity="100%" mask="url(#sceneMask)"/>
<path d="M 1633 923 L 1633 923 L 1633 203 L 173 203 L 173 923" fill="rgb(63,72,204)" fill-opacity="100%" mask="url(#sceneMask)"/>
<path d="M 1538 584 L 1538 584 L 1538 318 L 1148 318 L 1148 584" fill="rgb(255,127,39)" fill-opacity="100%" mask="url(#sceneMask)"/>
<path d="M 632 562 L 632 562 L 632 312 L 306 312 L 306 562" fill="rgb(255,127,39)" fill-opacity="100%" mask="url(#sceneMask)"/>
<path d="M 1040 508 L 1040 508 L 1041 507 L 1041 489 L 1039 475 L 1036 466 L 1035 460 L 1031 450 L 1024 437 L 1011 420 L 1011 419 L 1001 409 L 990 400 L 978 393 L 976 391 L 964 386 L 959 383 L 931 375 L 924 374 L 915 374 L 914 373 L 896 373 L 895 374 L 886 374 L 879 375 L 869 378 L 866 378 L 846 386 L 844 386 L 834 392 L 829 394 L 810 409 L 809 409 L 800 418 L 792 428 L 782 444 L 775 463 L 773 467 L 770 489 L 769 490 L 769 506 L 771 521 L 774 530 L 775 536 L 779 546 L 784 554 L 786 559 L 800 578 L 810 588 L 820 596 L 832 603 L 834 605 L 856 615 L 869 618 L 878 621 L 885 622 L 894 622 L 895 623 L 916 623 L 932 621 L 941 618 L 945 618 L 962 611 L 964 611 L 981 602 L 1000 588 L 1011 577 L 1015 571 L 1019 567 L 1020 564 L 1026 556 L 1033 539 L 1036 533" fill="rgb(255,174,201)" fill-opacity="100%" mask="url(#sceneMask)"/>
<path d="M 1478 854 L 1478 854 L 1478 714 L 1120 714 L 1120 854" fill="rgb(255,127,39)" fill-opacity="100%" mask="url(#sceneMask)"/>
<path d="M 714 846 L 714 846 L 714 710 L 382 710 L 382 846" fill="rgb(255,127,39)" fill-opacity="100%" mask="url(#sceneMask)"/>
<path d="M 596 515 L 596 515 L 574 507 L 569 504 L 557 500 L 552 497 L 540 493 L 535 490 L 528 488 L 523 485 L 511 481 L 506 478 L 494 474 L 489 471 L 477 467 L 467 462 L 470 458 L 475 457 L 484 453 L 474 448 L 467 446 L 455 440 L 448 438 L 436 432 L 429 430 L 412 422 L 415 418 L 420 417 L 428 413 L 433 412 L 426 407 L 414 403 L 409 400 L 392 394 L 387 391 L 370 385 L 355 378 L 356 375 L 364 372 L 393 363 L 396 361 L 425 352 L 428 350 L 451 343 L 499 391 L 499 393 L 487 399 L 489 402 L 538 434 L 540 438 L 523 445 L 580 497 L 581 497 L 591 507 L 597 512" fill="rgb(153,217,234)" fill-opacity="100%" mask="url(#sceneMask)"/>
<path d="M 997 507 L 997 507 L 997 495 L 994 484 L 986 471 L 971 458 L 953 450 L 937 447 L 921 447 L 897 453 L 880 463 L 867 478 L 861 495 L 861 507 L 864 518 L 872 531 L 887 544 L 902 551 L 921 555 L 938 555 L 959 550 L 974 542 L 987 530 L 991 524" fill="rgb(112,146,190)" fill-opacity="100%" mask="url(#sceneMask)"/>
<path d="M 1512 557 L 1512 557 L 1495 548 L 1469 531 L 1461 527 L 1448 518 L 1433 509 L 1433 507 L 1444 500 L 1429 490 L 1418 484 L 1400 472 L 1400 470 L 1413 462 L 1365 433 L 1365 431 L 1381 422 L 1406 410 L 1408 408 L 1424 401 L 1454 445 L 1446 453 L 1460 468 L 1478 486 L 1478 488 L 1468 494 L 1479 509 L 1500 536 L 1502 540 L 1513 554" fill="rgb(153,217,234)" fill-opacity="100%" mask="url(#sceneMask)"/>
<path d="M 627 822 L 627 822 L 617 816 L 602 809 L 600 807 L 585 800 L 583 798 L 568 791 L 564 788 L 576 784 L 576 782 L 568 778 L 563 777 L 540 767 L 532 764 L 539 762 L 540 759 L 516 744 L 511 742 L 497 733 L 469 738 L 464 740 L 430 746 L 425 748 L 412 750 L 411 753 L 415 755 L 419 755 L 424 757 L 428 757 L 437 760 L 441 760 L 450 763 L 454 763 L 463 766 L 467 766 L 476 769 L 473 771 L 466 772 L 462 774 L 463 777 L 470 778 L 483 782 L 487 782 L 500 786 L 504 786 L 517 790 L 521 790 L 521 792 L 515 793 L 511 795 L 512 798 L 523 800 L 548 807 L 552 807 L 577 814 L 581 814 L 602 820 L 606 820 L 623 825 L 626 825" fill="rgb(153,217,234)" fill-opacity="100%" mask="url(#sceneMask)"/>
<path d="M 1324 479 L 1324 479 L 1309 472 L 1300 466 L 1284 458 L 1275 452 L 1259 444 L 1246 436 L 1246 434 L 1256 428 L 1240 418 L 1233 415 L 1213 403 L 1213 401 L 1226 394 L 1220 390 L 1209 385 L 1196 377 L 1185 372 L 1179 366 L 1190 360 L 1192 360 L 1207 352 L 1209 352 L 1226 343 L 1237 339 L 1246 350 L 1258 367 L 1267 378 L 1267 380 L 1259 386 L 1285 410 L 1291 415 L 1291 417 L 1282 422 L 1310 458 L 1315 463 L 1325 476" fill="rgb(153,217,234)" fill-opacity="100%" mask="url(#sceneMask)"/>
<path d="M 1407 822 L 1407 822 L 1402 819 L 1400 819 L 1393 815 L 1391 815 L 1384 811 L 1382 811 L 1375 807 L 1373 807 L 1366 803 L 1364 803 L 1357 799 L 1355 799 L 1348 795 L 1344 794 L 1343 791 L 1352 790 L 1353 787 L 1307 771 L 1311 769 L 1314 769 L 1315 766 L 1292 754 L 1290 754 L 1269 743 L 1242 747 L 1236 749 L 1213 752 L 1207 754 L 1202 754 L 1201 755 L 1196 755 L 1195 756 L 1190 756 L 1189 757 L 1184 757 L 1180 758 L 1179 761 L 1184 763 L 1203 766 L 1204 767 L 1209 767 L 1230 772 L 1235 772 L 1241 774 L 1245 774 L 1245 776 L 1234 778 L 1233 781 L 1237 783 L 1251 785 L 1256 787 L 1265 788 L 1270 790 L 1284 792 L 1289 794 L 1293 794 L 1293 796 L 1285 797 L 1284 800 L 1293 803 L 1397 823 L 1406 825" fill="rgb(153,217,234)" fill-opacity="100%" mask="url(#sceneMask)"/>
<path d="M 954 527 L 954 527 L 943 531 L 933 531 L 922 527 L 915 521 L 911 515 L 909 508 L 909 500 L 913 490 L 921 482 L 929 478 L 943 477 L 947 478 L 960 486 L 965 493 L 967 500 L 967 508 L 965 515" fill="rgb(255,201,14)" fill-opacity="100%" mask="url(#sceneMask)"/>
<path d="M 455 396 L 455 396 L 448 400 L 436 401 L 425 396 L 419 386 L 419 379 L 421 374 L 428 367 L 436 364 L 444 364 L 452 367 L 459 374 L 461 379 L 461 386" fill="rgb(239,228,176)" fill-opacity="100%" mask="url(#sceneMask)"/>
<path d="M 1247 384 L 1247 384 L 1241 386 L 1231 386 L 1225 384 L 1219 379 L 1218 372 L 1225 364 L 1232 362 L 1241 362 L 1247 364 L 1252 368 L 1254 372 L 1253 379" fill="rgb(239,228,176)" fill-opacity="100%" mask="url(#sceneMask)"/>
<path d="M 1420 446 L 1420 446 L 1410 447 L 1402 442 L 1400 438 L 1401 430 L 1404 426 L 1410 423 L 1417 423 L 1425 428 L 1427 432 L 1427 438 L 1425 442" fill="rgb(239,228,176)" fill-opacity="100%" mask="url(#sceneMask)"/>
<path d="M 499 439 L 499 439 L 492 442 L 485 442 L 475 436 L 474 429 L 478 423 L 485 420 L 492 420 L 499 423 L 503 429 L 503 434" fill="rgb(239,228,176)" fill-opacity="100%" mask="url(#sceneMask)"/>
<path d="M 1449 483 L 1449 483 L 1444 485 L 1437 485 L 1432 483 L 1427 477 L 1427 472 L 1432 466 L 1443 464 L 1449 466 L 1454 472 L 1454 477" fill="rgb(239,228,176)" fill-opacity="100%" mask="url(#sceneMask)"/>
<path d="M 1264 410 L 1264 410 L 1258 412 L 1249 412 L 1239 406 L 1239 402 L 1243 398 L 1249 396 L 1258 396 L 1264 398 L 1268 402 L 1268 406" fill="rgb(239,228,176)" fill-opacity="100%" mask="url(#sceneMask)"/>
<path d="M 519 473 L 519 473 L 510 473 L 505 471 L 501 466 L 502 461 L 505 458 L 511 456 L 518 456 L 524 458 L 528 463 L 527 468" fill="rgb(239,228,176)" fill-opacity="100%" mask="url(#sceneMask)"/>
<path d="M 1263 771 L 1263 771 L 1254 771 L 1249 769 L 1245 764 L 1246 759 L 1249 756 L 1255 754 L 1262 754 L 1268 756 L 1272 761 L 1271 766" fill="rgb(239,228,176)" fill-opacity="100%" mask="url(#sceneMask)"/>
<path d="M 501 758 L 501 758 L 502 753 L 500 750 L 493 747 L 484 747 L 476 751 L 475 756 L 477 759 L 484 762 L 493 762" fill="rgb(239,228,176)" fill-opacity="100%" mask="url(#sceneMask)"/>
<path d="M 539 776 L 539 776 L 537 773 L 530 770 L 522 770 L 514 774 L 513 779 L 515 782 L 522 785 L 530 785 L 538 781" fill="rgb(239,228,176)" fill-opacity="100%" mask="url(#sceneMask)"/>
<path d="M 1465 521 L 1465 521 L 1461 521 L 1456 518 L 1454 510 L 1457 505 L 1465 503 L 1470 506 L 1472 510 L 1472 514 L 1469 519" fill="rgb(239,228,176)" fill-opacity="100%" mask="url(#sceneMask)"/>
<path d="M 1312 786 L 1312 786 L 1312 783 L 1305 778 L 1294 779 L 1290 783 L 1290 786 L 1297 791 L 1305 791 L 1308 790" fill="rgb(239,228,176)" fill-opacity="100%" mask="url(#sceneMask)"/>
<path d="M 1282 445 L 1282 445 L 1275 446 L 1270 442 L 1269 436 L 1273 431 L 1275 430 L 1280 430 L 1285 434 L 1286 440" fill="rgb(239,228,176)" fill-opacity="100%" mask="url(#sceneMask)"/>
<path d="M 945 511 L 945 511 L 939 512 L 935 509 L 934 503 L 937 499 L 943 498 L 947 501 L 948 503 L 948 507" fill="rgb(237,28,36)" fill-opacity="100%" mask="url(#sceneMask)"/>
<path d="M 533 777 L 533 777 L 530 780 L 522 780 L 518 777 L 523 775 L 530 775" fill="rgb(255,174,201)" fill-opacity="100%" mask="url(#sceneMask)"/>
</svg>
