<svg width="640" height = "143" xmlns="http://www.w3.org/2000/svg">
<defs>
<mask id="sceneMask">
<rect width="640" height="143" fill="white" />
<path d="M 472 100 C 462.226 100.177 459.68 97.2068 457 94 C 453.03 89.2499 448.045 78.3794 445 74 C 443.405 71.7054 442.414 71.138 441 69 C 438.853 65.7535 435.77 58.3787 434 56 L 434 56 L 432 54 C 437.68 44.8006 439.994 42.5661 442 41 C 443.663 39.7018 445.052 38.5395 447 38 C 449.281 37.3681 452.585 37.43 455 38 C 457.211 38.522 459.065 39.5049 461 41 C 463.436 42.8821 465.883 45.4174 468 49 C 471.142 54.3164 475.057 65.649 476 71 C 476.516 73.9261 475.488 76.7648 476 78 C 476.23 78.5552 476.755 78.4077 477 79 C 477.684 80.652 477.291 87.0584 477 90 C 476.802 92.0028 476.737 93.4179 476 95 C 475.174 96.7729 473.766 98.9913 472 100" fill="black" />
<path d="M 412 56 C 409.348 63.6631 401.643 72.7011 400 76 C 399.337 77.3313 399.702 77.6468 399 79 C 397.083 82.6969 388.789 94.5533 385 98 C 383.117 99.7132 381.736 100.519 380 101 C 378.393 101.445 376.64 101.744 375 101 C 372.609 99.9151 369.319 96.5115 368 93 C 366.283 88.4306 367.256 80.6806 368 75 C 368.691 69.7245 370.196 64.5161 372 60 C 373.62 55.9427 375.764 51.9885 378 49 C 379.84 46.5407 381.504 44.336 384 43 C 386.737 41.5353 391.006 40.6883 394 41 C 396.587 41.2694 398.596 42.2949 401 44 C 404.515 46.4929 411.213 52.8985 412 56" fill="black" />
<path d="M 72 42 L 72 42 L 85 80 L 59 80" fill="black" />
<path d="M 187 63 C 177.578 63.6431 174.39 64.8377 173 67 L 173 67 L 172 78 C 177.014 81.3381 177.918 81.2996 179 81 C 180.508 80.5823 182.703 79.4861 184 78 C 185.483 76.3016 186.494 73.4659 187 71 L 187 71" fill="black" />
</mask>
</defs>
<path d="M 309 118 C 298.789 117.478 297.051 115.667 295 115 C 293.047 114.365 291.217 113.76 289 114 C 286.05 114.319 282.205 117.383 279 118 C 276.238 118.532 273.567 118.976 271 118 C 267.85 116.803 264.443 112.718 262 110 C 259.935 107.703 258.597 106.078 257 103 C 254.494 98.1686 251.085 89.3836 250 83 C 249.057 77.4529 249.209 71.3603 250 67 C 250.578 63.8137 251.43 61.6028 253 59 C 254.864 55.91 258.184 52.0294 261 50 C 263.239 48.3861 265.341 47.5458 268 47 C 271.196 46.344 275.483 46.3227 279 47 C 282.48 47.6702 285.667 51 289 51 C 292.333 51 295.699 47.8274 299 47 C 302.027 46.2413 304.895 45.6285 308 46 C 311.53 46.4223 316.19 48.2104 319 50 L 319 50 L 324 55 C 313.711 70.3067 313.489 73.8189 314 77 C 314.506 80.1492 315.966 83.4005 318 86 L 318 86 L 327 93 C 315.277 113.469 312.15 116.803 309 118" fill="rgb(0,0,0)" fill-opacity="100%" mask="url(#sceneMask)"/>
<path d="M 79 24 L 65 24 C 40.7848 87.853 40.9672 89.3853 40 92 C 38.9927 94.7231 37.2204 96.9539 36 100 C 34.495 103.756 32.5033 109.653 32 113 L 32 113 L 32 118 L 44 118 L 47 107 L 53 93 L 91 93 C 95.4845 101.422 96.5833 108.358 98 112 L 98 112 L 101 118 L 114 117 C 107.382 99.9224 107.623 98.8159 107 97 C 106.175 94.595 104.007 91.7231 103 89 C 102.033 86.3853 101.967 83.6147 101 81 C 99.9927 78.2769 98.4969 76.5619 97 73 C 94.2278 66.4036 89.7722 50.5964 87 44 C 85.5031 40.4381 84.2364 38.985 83 36 L 83 36" fill="rgb(255,22,31)" fill-opacity="100%" mask="url(#sceneMask)"/>
<path d="M 154 46 C 158.469 31.4052 160.484 29.6023 163 28 C 165.955 26.1181 169.982 24.708 174 24 C 178.549 23.1986 184.577 23.1482 189 24 C 192.748 24.7218 196.244 25.7148 199 28 C 202.032 30.5143 204.551 34.0242 206 39 C 208.374 47.1524 203.887 66.6319 206 74 C 207.097 77.8253 210.343 79.7082 211 82 C 211.428 83.4923 211.641 84.5599 211 86 C 209.824 88.641 203.508 94.0377 201 95 C 199.816 95.4544 199.101 95.4561 198 95 L 198 95 L 191 88 C 174.43 96.2355 168.207 96.2737 164 95 C 160.428 93.9184 157.032 91.3019 155 89 C 153.4 87.1872 152.67 85.2693 152 83 C 151.221 80.3635 150.723 77.0503 151 74 C 151.297 70.7247 152.503 66.7859 154 64 C 155.295 61.5904 156.634 59.7631 159 58 C 162.304 55.5379 168.158 53.3333 173 52 L 173 52 L 188 50 C 187.222 41.8498 184.995 38.9342 183 38 C 181.252 37.1812 178.885 37.3177 177 38 C 174.85 38.7785 172.107 41.2358 171 43 L 171 43 L 170 47" fill="rgb(0,0,0)" fill-opacity="100%" mask="url(#sceneMask)"/>
<path d="M 456 116 C 450.566 112.004 446.509 108.396 443 104 C 437.729 97.3972 430.652 85.042 426 77 C 422.388 70.7558 419.844 63.8502 417 60 C 415.276 57.6656 413.494 56.8228 412 55 C 410.491 53.1592 409.509 50.8408 408 49 C 406.506 47.1772 404.917 45.4645 403 44 C 400.953 42.4362 398.201 40.8241 396 40 C 394.25 39.3446 392.873 38.7924 391 39 C 388.398 39.2885 384.294 41.4243 382 43 C 380.261 44.1941 379.358 45.261 378 47 C 376.05 49.4969 373.552 53.7841 372 57 C 370.672 59.7527 369.824 62.2248 369 65 L 369 65 L 367 74 L 352 74 C 352.589 65.1424 354.911 57.9639 357 53 C 358.961 48.3413 361.125 43.8646 364 40 C 366.814 36.2177 370.568 32.5887 374 30 C 376.928 27.7912 380.371 25.9664 383 25 C 384.85 24.3199 386.184 24.1798 388 24 C 390.128 23.7893 392.872 23.7893 395 24 C 396.816 24.1798 398.224 24.4484 400 25 C 402.17 25.6741 404.733 26.7246 407 28 C 409.409 29.3555 411.638 30.8896 414 33 C 416.954 35.6393 420.928 39.9603 423 43 C 424.463 45.1464 424.622 46.9476 426 49 C 427.735 51.5836 430.902 53.9926 433 57 C 435.278 60.2651 437.079 65.1119 439 68 C 440.374 70.0646 442.171 71.4765 443 73 C 443.582 74.0707 443.418 74.9293 444 76 C 444.829 77.5236 447.171 79.4764 448 81 C 448.582 82.0707 448.323 82.6901 449 84 L 449 84 L 460 99 C 458.432 103.407 460.244 111.676 459 114 L 459 114" fill="rgb(0,100,228)" fill-opacity="100%" mask="url(#sceneMask)"/>
<path d="M 610 73 L 610 73 L 565 73 L 565 118 L 610 118" fill="rgb(255,187,0)" fill-opacity="100%" mask="url(#sceneMask)"/>
<path d="M 561 69 L 561 69 L 561 24 L 517 24 L 516 68" fill="rgb(255,82,28)" fill-opacity="100%" mask="url(#sceneMask)"/>
<path d="M 561 73 L 561 73 L 517 73 L 517 118 L 561 118" fill="rgb(0,168,243)" fill-opacity="100%" mask="url(#sceneMask)"/>
<path d="M 609 69 L 609 69 L 566 69 L 566 24 L 610 25" fill="rgb(93,189,0)" fill-opacity="100%" mask="url(#sceneMask)"/>
<path d="M 460 116 C 466.706 118.511 471.952 117.867 475 117 C 477.376 116.324 479.186 115.308 481 114 C 482.863 112.658 484.503 111.16 486 109 C 487.957 106.176 489.987 102.676 491 98 C 492.569 90.7558 492.319 77.5589 491 69 C 489.906 61.9056 487.558 55.5961 485 50 C 482.761 45.1019 480.307 40.8172 477 37 C 473.655 33.1385 469.043 29.1723 465 27 C 461.695 25.224 457.938 24.4312 455 24 C 452.773 23.6731 451.171 23.6477 449 24 C 446.27 24.443 442.623 25.7172 440 27 C 437.713 28.1184 436.132 29.1656 434 31 C 430.939 33.6338 424.735 39.0767 424 42 C 423.613 43.5395 424.264 44.5757 425 46 L 425 46 L 431 53 C 435.089 46.1014 440.085 40.0955 444 38 C 447.17 36.3033 451.146 35.6177 454 36 C 456.315 36.31 457.904 37.4121 460 39 C 463.12 41.3638 467.282 45.5212 470 50 C 473.172 55.2271 475.779 64.1657 477 69 C 477.722 71.8568 477.797 73.1486 478 76 C 478.314 80.4212 478.758 89.0644 478 93 C 477.573 95.215 476.98 96.514 476 98 C 474.996 99.5231 473.875 101.224 472 102 L 472 102 L 461 102 L 460 104" fill="rgb(0,130,255)" fill-opacity="100%" mask="url(#sceneMask)"/>
<path d="M 421 68 C 407.358 94.2764 402.672 101.521 399 106 C 396.516 109.03 394.466 111.117 392 113 C 389.775 114.7 387.702 116.15 385 117 C 381.838 117.995 377.701 118.43 374 118 C 370.039 117.54 365.327 116.32 362 114 C 358.652 111.666 355.84 107.618 354 104 C 352.264 100.586 351.506 96.7814 351 93 C 350.48 89.1207 350.468 84.2786 351 81 L 351 81 L 353 75 L 366 75 C 366.592 93.8829 367.42 96.0376 369 98 C 370.679 100.086 373.561 102.579 376 103 C 378.244 103.387 380.82 102.283 383 101 C 385.542 99.5043 387.633 96.976 390 94 C 393.268 89.8915 396.307 83.5801 400 78 L 400 78 L 414 58" fill="rgb(0,130,255)" fill-opacity="100%" mask="url(#sceneMask)"/>
<path d="M 216 101 C 208.189 102.667 207.341 104.046 205 105 C 200.496 106.836 189.57 109.346 184 110 C 180.404 110.422 177.805 110.199 175 110 C 172.514 109.823 170.647 109.689 168 109 C 164.285 108.033 157.467 104.458 155 104 C 154.065 103.826 153.941 104.256 153 104 L 153 104 L 136 94 L 135 97 C 145.806 107.3 148.574 109.144 152 111 C 156.066 113.203 162.063 116.192 166 117 C 168.669 117.548 171.765 116.488 173 117 C 173.555 117.23 173.401 117.752 174 118 C 175.745 118.723 184.255 118.723 186 118 C 186.599 117.752 186.458 117.224 187 117 C 188.116 116.538 191.053 117.46 193 117 C 195.059 116.514 197.504 114.353 199 114 C 199.817 113.807 200.084 114.277 201 114 C 203.751 113.167 214.551 106.707 216 104 L 216 104" fill="rgb(255,187,0)" fill-opacity="100%" mask="url(#sceneMask)"/>
<path d="M 307 24 C 295.635 27.162 293.659 29.0209 292 31 C 290.315 33.0108 288.829 35.585 288 38 L 288 38 L 287 45 C 295.051 45.6915 297.186 44.3076 299 43 C 300.863 41.6575 302.678 39.9521 304 38 C 305.372 35.9741 306.511 33.3846 307 31 L 307 31" fill="rgb(0,0,0)" fill-opacity="100%" mask="url(#sceneMask)"/>
<path d="M 218 111 L 218 108 L 221 99 L 218 97 L 207 98 C 208.968 95.1096 210.963 94.3922 213 94 L 213 94 L 224 94 C 226 101.761 223.781 107.065 222 109 L 222 109" fill="rgb(255,187,0)" fill-opacity="100%" mask="url(#sceneMask)"/>
<path d="M 516 116 L 516 116 L 516 73 L 516 116" fill="rgb(0,100,228)" fill-opacity="100%" mask="url(#sceneMask)"/>
</svg>
